<svg width="600" height="400" xmlns="http://www.w3.org/2000/svg">
  <defs>
    <linearGradient id="grad1" x1="0%" y1="0%" x2="100%" y2="0%">
      <stop offset="0%" style="stop-color:#0056b3;stop-opacity:0.8" />
      <stop offset="100%" style="stop-color:#00a0e9;stop-opacity:0.8" />
    </linearGradient>
  </defs>
  <rect width="100%" height="100%" fill="#f8f9fa" />
  <rect x="50" y="50" width="500" height="300" rx="10" fill="white" stroke="#dee2e6" stroke-width="2" />
  
  <!-- Office Building Icon -->
  <g transform="translate(250, 120) scale(0.8)">
    <rect x="-60" y="-60" width="120" height="180" fill="url(#grad1)" rx="5" />
    <rect x="-40" y="-40" width="30" height="30" fill="white" rx="2" />
    <rect x="10" y="-40" width="30" height="30" fill="white" rx="2" />
    <rect x="-40" y="10" width="30" height="30" fill="white" rx="2" />
    <rect x="10" y="10" width="30" height="30" fill="white" rx="2" />
    <rect x="-40" y="60" width="30" height="30" fill="white" rx="2" />
    <rect x="10" y="60" width="30" height="30" fill="white" rx="2" />
    <rect x="-20" y="120" width="40" height="40" fill="white" />
  </g>
  
  <!-- People Icons -->
  <g transform="translate(150, 250)">
    <circle cx="0" cy="0" r="20" fill="#0056b3" />
    <circle cx="-10" cy="-5" r="5" fill="white" opacity="0.7" />
  </g>
  
  <g transform="translate(200, 230)">
    <circle cx="0" cy="0" r="20" fill="#00a0e9" />
    <circle cx="-10" cy="-5" r="5" fill="white" opacity="0.7" />
  </g>
  
  <g transform="translate(250, 250)">
    <circle cx="0" cy="0" r="20" fill="#ffc107" />
    <circle cx="-10" cy="-5" r="5" fill="white" opacity="0.7" />
  </g>
  
  <g transform="translate(300, 230)">
    <circle cx="0" cy="0" r="20" fill="#0056b3" />
    <circle cx="-10" cy="-5" r="5" fill="white" opacity="0.7" />
  </g>
  
  <g transform="translate(350, 250)">
    <circle cx="0" cy="0" r="20" fill="#00a0e9" />
    <circle cx="-10" cy="-5" r="5" fill="white" opacity="0.7" />
  </g>
  
  <!-- Text Placeholder -->
  <g transform="translate(300, 350)">
    <rect x="-200" y="0" width="400" height="10" rx="5" fill="#dee2e6" />
    <rect x="-150" y="20" width="300" height="10" rx="5" fill="#dee2e6" />
  </g>
</svg>