<?xml version="1.0" encoding="UTF-8"?>
<svg version="1.1" xmlns="http://www.w3.org/2000/svg" width="570" height="401">
<path d="M0 0 C-1.93853323 4.22506739 -4.83874404 7.12613805 -8.09799194 10.37214661 C-8.72982915 11.00922049 -9.36166635 11.64629437 -10.01265013 12.30267352 C-12.13436448 14.43940842 -14.26318662 16.56891561 -16.39208984 18.69848633 C-17.91336388 20.22738017 -19.43423327 21.75667675 -20.95472717 23.28634644 C-25.08816663 27.44174866 -29.22817755 31.59054253 -33.37007093 35.73751664 C-35.95513364 38.32621922 -38.53889244 40.91621599 -41.12221146 43.50665855 C-50.1275093 52.53645199 -59.13851448 61.56050931 -68.15429688 70.57983398 C-76.57086058 79.00003843 -84.97418686 87.43329861 -93.37162817 95.87256986 C-100.57387762 103.10944094 -107.78564726 110.33673136 -115.00487864 117.55666178 C-119.32017316 121.87275155 -123.63134606 126.1927777 -127.93284225 130.52262306 C-131.97496126 134.59078494 -136.02872137 138.64696504 -140.0919323 142.69405746 C-141.58464291 144.1849429 -143.0730521 145.68014875 -144.55690575 147.17984962 C-146.57599586 149.21918982 -148.60971246 151.24268759 -150.64804077 153.26277161 C-151.23812215 153.86605295 -151.82820353 154.4693343 -152.43616617 155.0908969 C-154.09270287 156.71352863 -154.09270287 156.71352863 -157 159 C-161.53009443 158.53774979 -163.90720366 155.4151185 -166.8910675 152.27455139 C-167.76993387 151.36883783 -167.76993387 151.36883783 -168.66655511 150.44482702 C-170.63419884 148.41407631 -172.59086511 146.37306013 -174.5480957 144.33227539 C-175.95563138 142.87642581 -177.36405494 141.42143419 -178.77330017 139.96723938 C-181.81313617 136.82965851 -184.84958784 133.68884987 -187.88439369 130.54640388 C-192.70028702 125.56573331 -197.54169656 120.61041466 -202.39042664 115.66172791 C-203.20959967 114.82558254 -204.02877271 113.98943717 -204.87276918 113.12795407 C-208.25488548 109.67662067 -211.63777079 106.2260416 -215.02074492 102.77554905 C-224.60396434 92.99840067 -234.16173973 83.19904385 -243.64868164 73.32836914 C-251.18707707 65.48541199 -258.77684843 57.69638529 -266.42906064 49.96438402 C-270.47137122 45.87599777 -274.48421491 41.76634824 -278.43563271 37.58989143 C-298.09640944 15.53075484 -298.09640944 15.53075484 -325.07861328 7.04492188 C-328.88388766 7.13744033 -332.63001842 7.37104026 -336.41957283 7.7256794 C-342.03466822 8.15588961 -347.54699285 7.71332699 -353.15454102 7.32983398 C-355.27596932 7.22621208 -357.39769533 7.12851625 -359.51966858 7.03672791 C-363.9990943 6.83604521 -368.47837197 6.63269207 -372.95750427 6.42555237 C-381.39061118 6.03621973 -389.82396801 5.65244307 -398.25738525 5.26989746 C-405.47392181 4.94247293 -412.69031808 4.6122433 -419.90653801 4.27791023 C-423.25556874 4.12389161 -426.60476965 3.97404839 -429.95399475 3.82432556 C-431.99611418 3.73002949 -434.03822392 3.63552313 -436.08032227 3.54077148 C-437.0012265 3.50075516 -437.92213074 3.46073883 -438.87094116 3.41950989 C-443.32165531 3.20848566 -447.61542522 2.85885684 -452 2 C-452 1.67 -452 1.34 -452 1 C-398.89476418 0.87217015 -345.78952743 0.7447338 -292.68428942 0.61781773 C-286.40028474 0.60279927 -280.11628006 0.58777758 -273.83227539 0.57275391 C-272.5813582 0.56976329 -271.330441 0.56677268 -270.04161722 0.56369144 C-249.84496429 0.51539887 -229.64831199 0.46684574 -209.45165991 0.41819459 C-188.69431308 0.36819867 -167.93696559 0.31848676 -147.17961746 0.26903296 C-134.39382101 0.23856237 -121.60802512 0.207876 -108.82222987 0.17690456 C-100.02850738 0.15562457 -91.23478425 0.13462297 -82.4410606 0.11383021 C-77.38417931 0.10186531 -72.32729837 0.08978737 -67.27041817 0.07737541 C-44.8468923 0.02242195 -22.42360139 -0.01500771 0 0 Z " fill="#3951A3" transform="translate(457,231)"/>
<path d="M0 0 C3.80686217 1.51946005 5.68061582 3.73593286 8.21522522 6.9100647 C9.06274702 7.95844286 9.91048702 9.00664464 10.75841045 10.05469799 C11.20847403 10.61603479 11.6585376 11.17737159 12.12223947 11.75571859 C26.4682167 29.59721699 41.59327112 46.75382241 57.0625 63.625 C57.73079094 64.35516469 58.39908189 65.08532937 59.08762407 65.83762026 C91.33350472 100.97435652 121.31766563 130.85400348 170.9554348 133.4344101 C182.06630594 133.8936859 193.10099825 133.45106466 204.1875 132.6875 C204.96583018 132.63540154 205.74416036 132.58330309 206.5460763 132.52962589 C226.55108217 131.16668897 246.286311 128.70678639 266 125 C261.68261007 134.31126264 253.83954766 142.8626259 245 148 C235.74987684 150.60990262 225.9257996 149.13649681 216.49790835 148.15249369 C212.68526541 147.77952869 208.86450109 147.52955738 205.04273987 147.27012062 C199.29489794 146.87169059 193.55106982 146.44207763 187.80845183 145.97432112 C176.71224846 145.0762441 165.61751156 144.47530527 154.49560547 144.00457764 C153.20219795 143.94959454 153.20219795 143.94959454 151.88266098 143.89350067 C148.35082485 143.74421218 144.81892379 143.59664647 141.28690583 143.45172124 C132.07729375 143.07356038 122.86986022 142.65096654 113.66233265 142.22546075 C108.86155366 142.0038702 104.06066617 141.78465212 99.25979614 141.5650444 C97.30194653 141.47536434 95.34409766 141.38566783 93.38624954 141.29595518 C87.35246917 141.01951222 81.31867607 140.74334756 75.28488159 140.46721268 C58.4684342 139.69754261 41.65200637 138.92744757 24.83564758 138.15584373 C23.77659924 138.10725127 22.7175509 138.0586588 21.62641019 138.00859383 C20.5655792 137.95991948 19.5047482 137.91124512 18.41177082 137.86109579 C16.26377173 137.76253954 14.11577261 137.66398417 11.96777344 137.56542969 C10.90240494 137.51654805 9.83703645 137.46766642 8.73938406 137.41730352 C-8.70515066 136.61699323 -26.14983043 135.81988981 -43.5945698 135.02405433 C-61.64323719 134.20061899 -79.69177931 133.37448279 -97.74019909 132.54563773 C-107.82095085 132.08276 -117.90175287 131.62104598 -127.98269653 131.16236496 C-136.51116943 130.7743116 -145.03952593 130.38381456 -153.56773829 129.99007533 C-157.91105866 129.78962299 -162.25442466 129.59034693 -166.59794235 129.39421272 C-170.57031919 129.21481016 -174.54252856 129.03208275 -178.5146302 128.84668966 C-179.95133898 128.78022206 -181.38810504 128.71497887 -182.82493031 128.65107886 C-184.77637778 128.56411249 -186.72760557 128.47225787 -188.67881775 128.38016319 C-189.76256652 128.33052717 -190.84631529 128.28089114 -191.96290493 128.22975099 C-195.02283373 127.99827267 -197.98274092 127.55162365 -201 127 C-201 126.67 -201 126.34 -201 126 C-200.19720234 126.12639894 -199.39440468 126.25279787 -198.56727982 126.38302708 C-169.97558608 130.64293787 -135.8583668 134.81598716 -111.32155609 116.65292931 C-103.82568507 110.77637864 -96.94043444 104.3122718 -90.234375 97.55859375 C-89.55460917 96.87400101 -88.87484333 96.18940827 -88.17447853 95.4840703 C-79.79664593 86.98283224 -71.77170457 78.18327161 -63.85321283 69.25520861 C-57.00617813 61.55218187 -49.92887032 54.0759739 -42.83070326 46.60497367 C-28.29734865 31.29835539 -14.05441903 15.7467076 0 0 Z " fill="#3951A3" transform="translate(297,0)"/>
<path d="M0 0 C1.35319474 0.00004181 1.35319474 0.00004181 2.73372674 0.00008446 C25.69986164 0.00101311 48.66598858 0.01151223 71.6321187 0.02562964 C84.93329358 0.03371225 98.23446772 0.03907219 111.53564453 0.04272461 C112.48966057 0.04298733 113.4436766 0.04325006 114.42660221 0.04352074 C119.21860605 0.04482696 124.01060989 0.04609039 128.80261374 0.04733264 C167.7694547 0.05748834 206.73628946 0.07490161 245.703125 0.09765625 C243.19348236 5.31676498 239.50877313 9.13389611 235.578125 13.34765625 C234.86269531 14.188125 234.14726563 15.02859375 233.41015625 15.89453125 C229.97540872 19.52369845 227.36844043 21.90484036 222.2837171 22.49356693 C221.01849094 22.45596525 219.75326479 22.41836358 218.44969845 22.37962246 C217.40263105 22.35558771 217.40263105 22.35558771 216.33441078 22.33106741 C214.12276536 22.27410316 211.91362562 22.18825075 209.703125 22.09765625 C208.32207346 22.05103174 206.94100439 22.00492321 205.55991757 21.95935547 C201.14764786 21.8019101 196.73827332 21.59340514 192.32826233 21.3830719 C190.6354155 21.30509943 188.94255369 21.22745169 187.24967855 21.15009636 C182.64384546 20.93870625 178.03823619 20.72275728 173.43265307 20.50599849 C168.44768356 20.27220383 163.46251533 20.04271905 158.47737122 19.81268311 C148.72934887 19.36219879 138.98151261 18.90780395 129.23373348 18.45209045 C117.86682439 17.92084445 106.49972921 17.39363314 95.13262384 16.86660623 C74.84128777 15.92568911 54.55011386 14.98131999 34.2590332 14.03491211 C14.59865662 13.1179259 -5.06181791 12.20308031 -24.72241211 11.29077148 C-25.93326487 11.23458397 -27.14411762 11.17839646 -28.39166289 11.12050629 C-30.83120265 11.00730557 -33.27074243 10.89410535 -35.71028224 10.78090566 C-37.51568009 10.69713142 -37.51568009 10.69713142 -39.35755062 10.61166477 C-40.55823677 10.55595154 -41.75892292 10.50023831 -42.99599349 10.4428368 C-61.77238565 9.5715219 -80.54870047 8.69854243 -99.32500179 7.82527228 C-104.98638113 7.56197195 -110.64776405 7.29874874 -116.30915523 7.03570294 C-128.20920933 6.48278043 -140.10923639 5.92928888 -152.00917714 5.37393159 C-156.92669299 5.14444483 -161.84422264 4.91526653 -166.76179504 4.68699455 C-171.27403699 4.4775227 -175.78623165 4.26706011 -180.29839224 4.05584335 C-181.91999252 3.98009761 -183.54160867 3.90469075 -185.16324317 3.82968111 C-195.87981087 3.33370275 -206.58869592 2.75034842 -217.296875 2.09765625 C-217.296875 1.76765625 -217.296875 1.43765625 -217.296875 1.09765625 C-144.86439926 0.38986807 -72.4360183 -0.00309624 0 0 Z " fill="#EF3038" transform="translate(290.296875,151.90234375)"/>
<path d="M0 0 C1.38255597 0.00004181 1.38255597 0.00004181 2.79304236 0.00008446 C26.3963617 0.00101845 49.9996734 0.01157159 73.60298812 0.02562964 C87.2868387 0.03368727 100.97068858 0.03906245 114.65454102 0.04272461 C115.63340687 0.04298733 116.61227273 0.04325006 117.62080119 0.04352074 C122.53675303 0.0448268 127.45270489 0.04609026 132.36865675 0.04733264 C172.45801449 0.05751826 212.54736625 0.07496184 252.63671875 0.09765625 C250.12707611 5.31676498 246.44236688 9.13389611 242.51171875 13.34765625 C241.79628906 14.188125 241.08085937 15.02859375 240.34375 15.89453125 C236.90391309 19.52907591 234.29908278 21.90578123 229.20663351 22.49356693 C227.3046835 22.43716442 227.3046835 22.43716442 225.36431026 22.37962246 C224.6657946 22.36359929 223.96727894 22.34757613 223.24759614 22.33106741 C221.04273428 22.27422801 218.84041874 22.18848547 216.63671875 22.09765625 C215.27315888 22.05111246 213.90958408 22.00500362 212.54599392 21.95935547 C208.21741047 21.80230554 203.89181896 21.59367895 199.56556702 21.3830719 C197.90571917 21.30509315 196.24585574 21.22744567 194.58597845 21.15009636 C190.07135151 20.93877132 185.55695761 20.7227987 181.04259074 20.50599849 C176.15578674 20.27214897 171.26877591 20.04269717 166.38179016 19.81268311 C156.82626992 19.36225567 147.27094321 18.90784336 137.71567566 18.45209045 C126.57266473 17.92077584 115.42945938 17.39359444 104.28624313 16.86660623 C84.39421622 15.92574031 64.50235734 14.98136861 44.6105957 14.03491211 C25.33824177 13.11793221 6.06578858 12.20307903 -13.20678711 11.29077148 C-14.3937439 11.23458397 -15.58070069 11.17839646 -16.80362587 11.12050629 C-21.57570303 10.89461249 -26.34778031 10.66872138 -31.1198579 10.4428368 C-49.52724499 9.57146735 -67.93455763 8.6985271 -86.34185536 7.82527228 C-91.89156402 7.56199188 -97.44127557 7.29877275 -102.99099422 7.03570294 C-114.65611653 6.48273105 -126.32121184 5.92920065 -137.98622506 5.37393159 C-142.80652955 5.14448549 -147.62684696 4.91532186 -152.44720459 4.68699455 C-156.87062379 4.47745439 -161.29399845 4.26699742 -165.71734089 4.05584335 C-167.30664089 3.98012541 -168.89595581 3.9047198 -170.48528802 3.82968111 C-181.11617544 3.32749321 -191.74011197 2.74294674 -202.36328125 2.09765625 C-202.36328125 1.76765625 -202.36328125 1.43765625 -202.36328125 1.09765625 C-134.90815675 0.3197083 -67.45926686 -0.00282169 0 0 Z " fill="#EF3038" transform="translate(230.36328125,204.90234375)"/>
<path d="M0 0 C-4.3078487 9.30085815 -12.18762253 17.85180267 -21 23 C-30.13264805 25.59990137 -39.82841093 24.13861045 -49.13841125 23.15249369 C-52.89564718 22.77950149 -56.66113281 22.52958237 -60.42762184 22.27012062 C-66.0883162 21.8718735 -71.74491203 21.44231507 -77.40026962 20.97432112 C-88.30414829 20.07757107 -99.20650626 19.47591223 -110.13641357 19.00457764 C-111.40573885 18.94959454 -111.40573885 18.94959454 -112.70070706 18.89350067 C-116.16587993 18.74423553 -119.63111808 18.59666869 -123.09647434 18.45172124 C-132.12815988 18.07364269 -141.15761902 17.65104133 -150.18717192 17.22546075 C-153.9423838 17.04867675 -157.69766778 16.87345167 -161.45295308 16.69823537 C-164.32394889 16.56427865 -167.19493612 16.43013931 -170.06592131 16.29595518 C-175.98261248 16.01946641 -181.89931937 15.7433149 -187.81602859 15.46721268 C-204.30817235 14.69754747 -220.80029767 13.92748997 -237.29234886 13.15584373 C-238.33090748 13.10725127 -239.3694661 13.0586588 -240.4394962 13.00859383 C-241.99994469 12.9355823 -241.99994469 12.9355823 -243.5919174 12.86109579 C-245.6983225 12.76253975 -247.80472764 12.66398439 -249.91113281 12.56542969 C-250.9558702 12.51654805 -252.00060758 12.46766642 -253.07700367 12.41730352 C-270.18143617 11.61709545 -287.28601031 10.81995676 -304.39064364 10.02405433 C-322.09010393 9.20043012 -339.78944587 8.37430151 -357.48867095 7.54563773 C-367.37329583 7.08290549 -377.25796783 6.62123833 -387.14277267 6.16236496 C-395.50581268 5.77412421 -403.86874229 5.38360458 -412.23153518 4.99007533 C-416.48991553 4.78975653 -420.74833938 4.59052419 -425.00690651 4.39421272 C-428.90288333 4.21459011 -432.79870222 4.03187201 -436.69441862 3.84668966 C-438.10224169 3.78031402 -439.51011867 3.71507031 -440.91805212 3.65107886 C-442.83294471 3.56387821 -444.74762838 3.47212545 -446.6622982 3.38016319 C-448.25626838 3.30570915 -448.25626838 3.30570915 -449.88243997 3.22975099 C-453.28629605 2.97890119 -456.6272535 2.51749071 -460 2 C-460 1.67 -460 1.34 -460 1 C-404.7202842 0.87229563 -349.44056776 0.74487074 -294.16085046 0.61781773 C-287.62619522 0.60279846 -281.09153999 0.5877769 -274.55688477 0.57275391 C-273.25601925 0.56976329 -271.95515373 0.56677268 -270.61486805 0.56369144 C-249.58509537 0.51533972 -228.55532311 0.46680189 -207.52555101 0.41819459 C-185.92751339 0.368278 -164.3294753 0.318563 -142.73143679 0.26903296 C-129.41741449 0.23849407 -116.10339256 0.20780022 -102.78937108 0.17690456 C-93.64435877 0.15569834 -84.49934602 0.13468893 -75.35433292 0.11383021 C-70.08781528 0.1018122 -64.82129787 0.08971136 -59.55478096 0.07737541 C-19.04293348 -0.01741381 -19.04293348 -0.01741381 0 0 Z " fill="#EF2D35" transform="translate(510,178)"/>
</svg>
