<svg width="400" height="300" xmlns="http://www.w3.org/2000/svg">
  <defs>
    <linearGradient id="grad1" x1="0%" y1="0%" x2="100%" y2="0%">
      <stop offset="0%" style="stop-color:#0056b3;stop-opacity:1" />
      <stop offset="100%" style="stop-color:#00a0e9;stop-opacity:1" />
    </linearGradient>
  </defs>
  <rect width="100%" height="100%" fill="url(#grad1)" />
  
  <!-- Hotel Icon -->
  <g transform="translate(200, 150) scale(1.5)">
    <rect x="-50" y="-60" width="100" height="120" fill="white" rx="5" />
    
    <!-- Windows -->
    <rect x="-40" y="-50" width="20" height="20" fill="#e9ecef" rx="2" />
    <rect x="-10" y="-50" width="20" height="20" fill="#e9ecef" rx="2" />
    <rect x="20" y="-50" width="20" height="20" fill="#e9ecef" rx="2" />
    
    <rect x="-40" y="-20" width="20" height="20" fill="#e9ecef" rx="2" />
    <rect x="-10" y="-20" width="20" height="20" fill="#e9ecef" rx="2" />
    <rect x="20" y="-20" width="20" height="20" fill="#e9ecef" rx="2" />
    
    <rect x="-40" y="10" width="20" height="20" fill="#e9ecef" rx="2" />
    <rect x="-10" y="10" width="20" height="20" fill="#e9ecef" rx="2" />
    <rect x="20" y="10" width="20" height="20" fill="#e9ecef" rx="2" />
    
    <!-- Door -->
    <rect x="-15" y="40" width="30" height="40" fill="#0056b3" rx="2" />
    
    <!-- Text -->
    <text x="0" y="-70" font-family="Arial" font-size="14" fill="white" text-anchor="middle" font-weight="bold">OPERA PMS</text>
  </g>
</svg>