<svg width="800" height="500" viewBox="0 0 800 500" xmlns="http://www.w3.org/2000/svg">
  <!-- Background -->
  <rect width="800" height="500" fill="#f5f7fa"/>
  
  <!-- Window Frame -->
  <rect x="50" y="50" width="700" height="400" rx="5" ry="5" fill="#fff" stroke="#ddd" stroke-width="2"/>
  
  <!-- Window Header -->
  <rect x="50" y="50" width="700" height="40" rx="5" ry="5" fill="#0056b3"/>
  <text x="70" y="75" font-family="Arial" font-size="16" fill="#fff">Oracle Hospitality OPERA Cloud Property Management System</text>
  
  <!-- Window Controls -->
  <circle cx="720" cy="70" r="8" fill="#ff5f57"/>
  <circle cx="695" cy="70" r="8" fill="#ffbd2e"/>
  <circle cx="670" cy="70" r="8" fill="#28ca41"/>
  
  <!-- Sidebar -->
  <rect x="50" y="90" width="180" height="360" fill="#f0f4f8"/>
  
  <!-- Sidebar Menu Items -->
  <rect x="60" y="110" width="160" height="40" rx="3" ry="3" fill="#0056b3"/>
  <text x="80" y="135" font-family="Arial" font-size="14" fill="#fff">Dashboard</text>
  
  <rect x="60" y="160" width="160" height="40" rx="3" ry="3" fill="#fff" stroke="#ddd" stroke-width="1"/>
  <text x="80" y="185" font-family="Arial" font-size="14" fill="#333">Reservations</text>
  
  <rect x="60" y="210" width="160" height="40" rx="3" ry="3" fill="#fff" stroke="#ddd" stroke-width="1"/>
  <text x="80" y="235" font-family="Arial" font-size="14" fill="#333">Front Desk</text>
  
  <rect x="60" y="260" width="160" height="40" rx="3" ry="3" fill="#fff" stroke="#ddd" stroke-width="1"/>
  <text x="80" y="285" font-family="Arial" font-size="14" fill="#333">Housekeeping</text>
  
  <rect x="60" y="310" width="160" height="40" rx="3" ry="3" fill="#fff" stroke="#ddd" stroke-width="1"/>
  <text x="80" y="335" font-family="Arial" font-size="14" fill="#333">Reports</text>
  
  <rect x="60" y="360" width="160" height="40" rx="3" ry="3" fill="#fff" stroke="#ddd" stroke-width="1"/>
  <text x="80" y="385" font-family="Arial" font-size="14" fill="#333">Configuration</text>
  
  <!-- Main Content Area -->
  <rect x="240" y="100" width="500" height="340" fill="#fff"/>
  
  <!-- Dashboard Title -->
  <text x="260" y="130" font-family="Arial" font-size="20" font-weight="bold" fill="#333">Dashboard</text>
  
  <!-- Dashboard Stats -->
  <rect x="260" y="150" width="220" height="100" rx="5" ry="5" fill="#e9f0f8" stroke="#c5d6e8" stroke-width="1"/>
  <text x="280" y="180" font-family="Arial" font-size="16" fill="#333">Occupancy Rate</text>
  <text x="280" y="220" font-family="Arial" font-size="24" font-weight="bold" fill="#0056b3">78%</text>
  
  <rect x="500" y="150" width="220" height="100" rx="5" ry="5" fill="#e9f0f8" stroke="#c5d6e8" stroke-width="1"/>
  <text x="520" y="180" font-family="Arial" font-size="16" fill="#333">Revenue</text>
  <text x="520" y="220" font-family="Arial" font-size="24" font-weight="bold" fill="#0056b3">$12,450</text>
  
  <rect x="260" y="270" width="220" height="100" rx="5" ry="5" fill="#e9f0f8" stroke="#c5d6e8" stroke-width="1"/>
  <text x="280" y="300" font-family="Arial" font-size="16" fill="#333">Arrivals Today</text>
  <text x="280" y="340" font-family="Arial" font-size="24" font-weight="bold" fill="#0056b3">24</text>
  
  <rect x="500" y="270" width="220" height="100" rx="5" ry="5" fill="#e9f0f8" stroke="#c5d6e8" stroke-width="1"/>
  <text x="520" y="300" font-family="Arial" font-size="16" fill="#333">Departures Today</text>
  <text x="520" y="340" font-family="Arial" font-size="24" font-weight="bold" fill="#0056b3">18</text>
</svg>